<svg xmlns="http://www.w3.org/2000/svg" viewBox="0 0 512 512" fill="none" aria-hidden="true">
  <title>BACARDÍ — bollino</title>
  <circle cx="256" cy="256" r="250" fill="#ffffff" />
  <circle cx="256" cy="256" r="236" fill="#0a0a0a" />
  <circle cx="256" cy="256" r="222" fill="#ffffff" />
  <circle cx="256" cy="256" r="204" fill="#d91e27" />
  <g fill="#0a0a0a">
    <ellipse cx="256" cy="278" rx="36" ry="54" />
    <path
      d="M256 176c-52 10-98 48-118 102 22-8 44-12 66-12 24 0 46 8 52 20 6-12 28-20 52-20 22 0 44 4 66 12-20-54-66-92-118-102Z"
      opacity="0.96"
    />
    <path
      d="M132 292c-40 32-62 78-52 110 28-36 72-62 116-70-28-20-48-32-64-40Zm248 0c16 8 36 20 64 40 44 8 88 34 116 70 10-32-12-78-52-110Z"
    />
  </g>
</svg>
